<?xml version="1.0" encoding="utf-8"?>
<!-- Generator: Adobe Illustrator 17.0.0, SVG Export Plug-In . SVG Version: 6.00 Build 0)  -->
<!DOCTYPE svg PUBLIC "-//W3C//DTD SVG 1.1//EN" "http://www.w3.org/Graphics/SVG/1.1/DTD/svg11.dtd">
<svg version="1.1" id="Layer_1" xmlns="http://www.w3.org/2000/svg" xmlns:xlink="http://www.w3.org/1999/xlink" x="0px" y="0px"
	 width="512px" height="512px" viewBox="0 0 512 512" enable-background="new 0 0 512 512" xml:space="preserve">
<g id="lamp">
	<g>
		<path fill-rule="evenodd" clip-rule="evenodd" fill="#FFCD07" d="M326.424,406.904H185.553c-10.719,0-19.543,8.613-19.543,19.104
			c0,10.51,8.824,19.081,19.543,19.081h140.871c10.782,0,19.584-8.571,19.584-19.081
			C346.009,415.517,337.206,406.904,326.424,406.904z M301.963,471.367h-91.929c-10.758,0-19.539,8.571-19.539,19.081
			c0,10.553,8.781,19.166,19.539,19.166h91.929c10.72,0,19.542-8.613,19.542-19.166
			C321.505,479.938,312.684,471.367,301.963,471.367z M256,2.386c-88.737,0-160.706,71.991-160.706,160.75
			c0,50.822,35.893,95.096,35.893,95.096c13.513,16.726,24.627,48.027,24.627,69.57v12.45c0,21.523,17.621,39.146,39.144,39.146
			h119.017c21.503,0,39.189-17.622,39.189-39.146v-10.175c0-21.481,11.301-52.574,25.148-69.069c0,0,38.394-45.652,38.394-97.871
			C416.706,74.377,344.758,2.386,256,2.386z"/>
	</g>
</g>
</svg>
